<svg viewBox="0 0 50 50" xmlns="http://www.w3.org/2000/svg" xmlns:xlink="http://www.w3.org/1999/xlink" width="50.000000" height="50.000000" fill="none" clip-path="url(#clipPath_0)" customFrame="url(#clipPath_0)">
	<defs>
		<clipPath id="clipPath_0">
			<rect width="50.000000" height="50.000000" x="0.000000" y="0.000000" rx="25.000000" fill="rgb(255,255,255)" />
		</clipPath>
	</defs>
	<rect id="Frame" width="50.000000" height="50.000000" x="0.000000" y="0.000000" rx="25.000000" fill="rgb(255,140.25,0)" />
	<path id="Vector" d="M14.2857 11.4286L14.2857 14.2857C14.2857 15.0747 14.9253 15.7143 15.7143 15.7143C16.5033 15.7143 17.1429 15.0747 17.1429 14.2857L17.1429 11.4286C17.1429 10.6396 16.5033 10 15.7143 10C14.9253 10 14.2857 10.6396 14.2857 11.4286ZM20 11.4286L20 14.2857C20 15.0747 20.6396 15.7143 21.4286 15.7143C22.2175 15.7143 22.8571 15.0747 22.8571 14.2857L22.8571 11.4286C22.8571 10.6396 22.2175 10 21.4286 10C20.6396 10 20 10.6396 20 11.4286ZM25.7143 11.4286L25.7143 14.2857C25.7143 15.0747 26.3539 15.7143 27.1429 15.7143C27.9318 15.7143 28.5714 15.0747 28.5714 14.2857L28.5714 11.4286C28.5714 10.6396 27.9318 10 27.1429 10C26.3539 10 25.7143 10.6396 25.7143 11.4286ZM10 32.8571L10 21.4286C10 20.6708 10.3012 19.9443 10.8371 19.4085C11.3729 18.8727 12.0994 18.5714 12.8571 18.5714L32.8571 18.5714C34.7515 18.5714 36.5678 19.3245 37.9074 20.6641C39.2469 22.0036 40 23.8199 40 25.7143C40 27.6087 39.2469 29.425 37.9074 30.7645C36.5678 32.1041 34.7515 32.8571 32.8571 32.8571C32.8571 34.7515 32.1041 36.5678 30.7645 37.9074C29.425 39.2469 27.6087 40 25.7143 40L17.1429 40C15.2485 40 13.4322 39.2469 12.0926 37.9074C10.7531 36.5678 10 34.7515 10 32.8571ZM12.8571 32.8571C12.8571 33.9938 13.309 35.0836 14.1127 35.8873C14.9165 36.691 16.0062 37.1429 17.1429 37.1429L25.7143 37.1429C26.8509 37.1429 27.9407 36.691 28.7444 35.8873C29.5481 35.0836 30 33.9938 30 32.8571L30 21.4286L12.8571 21.4286L12.8571 32.8571ZM32.8571 30L33.2812 29.9791C34.2622 29.8816 35.1841 29.4476 35.8873 28.7444C36.691 27.9407 37.1429 26.8509 37.1429 25.7143C37.1429 24.5776 36.691 23.4879 35.8873 22.6842C35.1841 21.981 34.2622 21.547 33.2812 21.4495L32.8571 21.4286L32.8571 30Z" fill="rgb(4.90385,4.90385,4.90385)" fill-rule="evenodd" />
</svg>
