<svg viewBox="0 0 30 30" xmlns="http://www.w3.org/2000/svg" xmlns:xlink="http://www.w3.org/1999/xlink" width="30.000000" height="30.000000" fill="none" customFrame="#000000">
	<path id="Vector" d="M4.28572 1.42857L4.28572 4.28571C4.28572 5.07469 4.92531 5.71428 5.71429 5.71428C6.50327 5.71428 7.14286 5.07469 7.14286 4.28571L7.14286 1.42857C7.14286 0.639593 6.50327 0 5.71429 0C4.92531 0 4.28572 0.639593 4.28572 1.42857ZM10 1.42857L10 4.28571C10 5.07469 10.6396 5.71428 11.4286 5.71428C12.2175 5.71428 12.8571 5.07469 12.8571 4.28571L12.8571 1.42857C12.8571 0.639593 12.2175 0 11.4286 0C10.6396 0 10 0.639593 10 1.42857ZM15.7143 1.42857L15.7143 4.28571C15.7143 5.07469 16.3539 5.71428 17.1429 5.71428C17.9318 5.71428 18.5714 5.07469 18.5714 4.28571L18.5714 1.42857C18.5714 0.639593 17.9318 0 17.1429 0C16.3539 0 15.7143 0.639593 15.7143 1.42857ZM0 22.8571L0 11.4286C0 10.6708 0.301235 9.9443 0.837054 9.40849C1.37287 8.87267 2.09938 8.57143 2.85714 8.57143L22.8571 8.57143C24.7515 8.57143 26.5678 9.32452 27.9074 10.6641C29.2469 12.0036 30 13.8199 30 15.7143C30 17.6087 29.2469 19.425 27.9074 20.7645C26.5678 22.1041 24.7515 22.8571 22.8571 22.8571C22.8571 24.7515 22.1041 26.5678 20.7645 27.9074C19.425 29.2469 17.6087 30 15.7143 30L7.14286 30C5.24845 30 3.43218 29.2469 2.09263 27.9074C0.753088 26.5678 0 24.7515 0 22.8571ZM2.85714 22.8571C2.85714 23.9938 3.309 25.0836 4.11272 25.8873C4.91645 26.691 6.00622 27.1429 7.14286 27.1429L15.7143 27.1429C16.8509 27.1429 17.9407 26.691 18.7444 25.8873C19.5481 25.0836 20 23.9938 20 22.8571L20 11.4286L2.85714 11.4286L2.85714 22.8571ZM22.8571 20L23.2812 19.9791C24.2622 19.8816 25.1841 19.4476 25.8873 18.7444C26.691 17.9407 27.1429 16.8509 27.1429 15.7143C27.1429 14.5776 26.691 13.4879 25.8873 12.6842C25.1841 11.981 24.2622 11.547 23.2812 11.4495L22.8571 11.4286L22.8571 20Z" fill="rgb(4.90385,4.90385,4.90385)" fill-rule="evenodd" />
</svg>
