<svg viewBox="0 0 16 16" xmlns="http://www.w3.org/2000/svg" xmlns:xlink="http://www.w3.org/1999/xlink" width="16.000000" height="16.000000" fill="none">
	<rect id="Frame" width="16.000000" height="16.000000" x="0.000000" y="0.000000" fill="rgb(255,255,255)" fill-opacity="0" />
	<path id="Vector (Stroke)" d="M10.6352 10.6353C10.8956 10.375 11.3176 10.375 11.5779 10.6353L14.4711 13.5285C14.7315 13.7889 14.7315 14.2109 14.4711 14.4712C14.2108 14.7316 13.7888 14.7316 13.5284 14.4712L10.6352 11.578C10.3749 11.3177 10.3749 10.8957 10.6352 10.6353Z" fill="rgb(109.601,109.601,109.601)" fill-rule="nonzero" />
	<path id="Vector (Stroke)" d="M12.0002 7.33333C12.0002 4.756 9.91083 2.66667 7.3335 2.66667C4.75617 2.66667 2.66683 4.756 2.66683 7.33333C2.66683 9.91066 4.75617 12 7.3335 12C9.91083 12 12.0002 9.91066 12.0002 7.33333ZM13.3335 7.33333C13.3335 10.647 10.6472 13.3333 7.3335 13.3333C4.01979 13.3333 1.3335 10.647 1.3335 7.33333C1.3335 4.01962 4.01979 1.33333 7.3335 1.33333C10.6472 1.33333 13.3335 4.01962 13.3335 7.33333Z" fill="rgb(109.601,109.601,109.601)" fill-rule="nonzero" />
</svg>
