<svg width="20" height="21" viewBox="0 0 20 21" fill="none" xmlns="http://www.w3.org/2000/svg">
<rect y="0.5" width="20" height="20" rx="10" fill="#EE1C25"/>
<path d="M9.01618 10.8857H10.5705C10.9514 10.8857 11.2524 10.7714 11.4733 10.5429C11.7019 10.3143 11.8162 10.021 11.8162 9.66286C11.8162 9.30476 11.7019 9.01143 11.4733 8.78286C11.2524 8.55429 10.9514 8.44 10.5705 8.44H9.01618V10.8857ZM7.43904 15V7H10.6619C11.0733 7 11.4467 7.06476 11.7819 7.19429C12.1248 7.31619 12.4181 7.49524 12.6619 7.73143C12.9133 7.96762 13.1038 8.24952 13.2333 8.57714C13.3705 8.89714 13.439 9.25905 13.439 9.66286C13.439 10.0667 13.3705 10.4324 13.2333 10.76C13.1038 11.0876 12.9133 11.3695 12.6619 11.6057C12.4181 11.8343 12.1248 12.0133 11.7819 12.1429C11.4467 12.2648 11.0733 12.3257 10.6619 12.3257H9.01618V15H7.43904Z" fill="white"/>
</svg>
